<?xml version="1.0" standalone="no"?>
<!DOCTYPE svg PUBLIC "-//W3C//DTD SVG 20010904//EN"
 "http://www.w3.org/TR/2001/REC-SVG-20010904/DTD/svg10.dtd">
<svg version="1.0" xmlns="http://www.w3.org/2000/svg"
 width="700.000000pt" height="700.000000pt" viewBox="0 0 700.000000 700.000000"
 preserveAspectRatio="xMidYMid meet">
<metadata>
Created by potrace 1.11, written by Peter Selinger 2001-2013
</metadata>
<g transform="translate(0.000000,700.000000) scale(0.100000,-0.100000)"
fill="#000000" stroke="none">
<path d="M2169 5869 c-10 -15 -19 -29 -19 -32 0 -2 -30 -56 -66 -118 -37 -63
-78 -134 -92 -159 -14 -25 -45 -78 -69 -118 -24 -41 -43 -76 -43 -80 0 -3 -6
-13 -14 -21 -7 -9 -27 -41 -44 -71 -16 -30 -63 -111 -102 -180 -40 -69 -84
-145 -98 -170 -13 -25 -28 -49 -32 -55 -5 -5 -19 -30 -32 -55 -31 -57 -408
-710 -468 -810 -67 -111 -230 -398 -230 -404 0 -3 53 -97 117 -208 64 -112
165 -286 223 -388 140 -243 292 -506 319 -550 11 -19 25 -44 30 -55 6 -11 151
-263 323 -560 l313 -540 1358 -1 c780 0 1360 3 1363 8 8 12 34 -11 34 -29 0
-28 18 -2 96 134 43 76 83 146 89 155 5 10 56 98 113 195 56 98 109 189 117
203 8 14 39 67 70 119 30 51 55 95 55 97 0 3 201 352 225 390 11 18 10 26 -14
65 -15 24 -39 64 -53 89 -14 25 -144 248 -288 495 -145 248 -271 465 -281 483
-11 17 -27 47 -38 65 -10 17 -40 68 -66 112 -26 44 -57 96 -67 115 -11 19 -44
76 -73 125 -29 50 -62 106 -73 125 -43 76 -254 435 -258 440 -6 6 -1634 6
-1643 0 -6 -4 -86 -138 -148 -250 -11 -19 -43 -73 -70 -120 -50 -85 -338 -582
-372 -643 -10 -18 -44 -77 -76 -132 -101 -173 -105 -180 -105 -187 0 -5 372
-8 828 -8 l827 -1 260 -446 c143 -245 272 -467 286 -492 14 -25 85 -147 158
-270 72 -123 131 -225 131 -227 0 -1 22 -39 50 -84 27 -45 50 -83 50 -86 0 -2
18 -33 40 -69 l40 -65 -1194 0 -1194 0 -45 78 c-24 42 -54 93 -64 112 -11 19
-145 251 -298 515 -279 482 -622 1076 -701 1214 -40 70 -42 76 -28 102 7 15
68 120 134 234 66 113 120 207 120 209 0 2 17 33 38 67 22 35 50 84 64 109 14
25 72 126 130 225 170 293 306 528 320 555 7 14 21 36 29 50 9 14 80 136 159
273 l142 247 1153 0 1153 0 61 -106 c34 -58 71 -122 83 -142 11 -20 42 -74 69
-120 27 -45 49 -87 49 -92 0 -6 5 -10 10 -10 6 0 10 -4 10 -10 0 -5 27 -55 60
-111 33 -55 60 -102 60 -104 0 -3 111 -195 130 -225 5 -8 17 -28 26 -44 9 -16
158 -275 331 -575 174 -300 321 -555 327 -566 26 -48 25 -47 74 -18 64 37 141
80 180 100 17 9 32 21 32 26 0 5 -59 111 -131 236 -73 124 -143 246 -157 271
-14 25 -71 124 -127 220 -56 96 -113 195 -127 220 -47 83 -586 1016 -723 1250
l-61 105 -1328 1 -1327 1 -20 -28z"/>
</g>
</svg>
